<svg width="36" height="36" viewBox="0 0 36 36" fill="none" xmlns="http://www.w3.org/2000/svg">
  <rect width="36" height="36" rx="8" />
  <path d="M13 32H7C5.3 32 4 30.7 4 29V23C4 21.3 5.3 20 7 20H13C14.7 20 16 21.3 16 23V29C16 30.7 14.7 32 13 32Z"
    fill="white" />
  <path d="M31 8H19C18.4 8 18 7.6 18 7C18 6.4 18.4 6 19 6H31C31.6 6 32 6.4 32 7C32 7.6 31.6 8 31 8Z" fill="white" />
  <path d="M26 12H19C18.4 12 18 11.6 18 11C18 10.4 18.4 10 19 10H26C26.6 10 27 10.4 27 11C27 11.6 26.6 12 26 12Z"
    fill="white" />
  <path d="M31 24H19C18.4 24 18 23.6 18 23C18 22.4 18.4 22 19 22H31C31.6 22 32 22.4 32 23C32 23.6 31.6 24 31 24Z"
    fill="white" />
  <path d="M26 28H19C18.4 28 18 27.6 18 27C18 26.4 18.4 26 19 26H26C26.6 26 27 26.4 27 27C27 27.6 26.6 28 26 28Z"
    fill="white" />
  <path
    d="M13 4H7C5.3 4 4 5.3 4 7V13C4 14.7 5.3 16 7 16H13C14.7 16 16 14.7 16 13V7C16 5.3 14.7 4 13 4ZM13.7 8.7L10.7 11.7C10.5 11.9 10.3 12 10 12C9.7 12 9.5 11.9 9.3 11.7L7.3 9.7C6.9 9.3 6.9 8.7 7.3 8.3C7.7 7.9 8.3 7.9 8.7 8.3L10 9.6L12.3 7.3C12.7 6.9 13.3 6.9 13.7 7.3C14.1 7.7 14.1 8.3 13.7 8.7Z"
    fill="white" />
</svg>
